<?xml version="1.0"?>
<svg xmlns="http://www.w3.org/2000/svg" width="100" height="107" viewBox="0 0 100 107" fill="none">
<path d="M100 49.4946C100 22.524 77.6195 0.649994 50.0158 0.649994C22.4122 0.649994 0 22.524 0 49.4946C0 76.4651 22.3805 98.3391 49.9842 98.3391C56.7585 98.3391 63.1846 97.0096 69.0725 94.6354L81.2599 106.728L96.6445 92.1346L87.1478 82.1631C95.125 73.4895 100 62.0302 100 49.4629V49.4946ZM49.9842 78.0163C38.9364 78.0163 29.9462 69.0577 29.9462 57.9783C29.9462 50.6658 31.9405 38.6367 42.007 29.8998C39.3479 37.8453 42.0386 46.0441 42.0386 46.0441C46.6287 42.6253 52.6432 24.6133 47.9582 13.2806C57.9614 23.9485 62.6464 43.3217 60.6521 55.984C64.6407 49.9694 64.0393 38.6684 64.0393 38.6684C68.7243 46.0125 70.0222 50.6025 70.0222 57.9783C70.0222 69.0261 61.0636 78.0163 49.9842 78.0163Z" fill="#D95013"/>
</svg>
